<?xml version="1.0" standalone="no"?>
<svg viewBox="0 0 200 200" xmlns="http://www.w3.org/2000/svg">
  <path fill="#000000" d="M45.6,-70.2C58.6,-62.7,68,-49.1,73.7,-34.3C79.4,-19.6,81.2,-3.8,78.5,10.9C75.8,25.7,68.5,39.4,58.6,50.6C48.6,61.9,36,70.7,21.4,76.6C6.9,82.6,-9.6,85.7,-21.8,79.7C-34,73.6,-41.9,58.4,-46.7,44.9C-51.4,31.4,-53.1,19.6,-57.3,6.7C-61.5,-6.2,-68.3,-20.2,-66.8,-33.4C-65.3,-46.6,-55.5,-58.8,-43,-66.5C-30.5,-74.2,-15.2,-77.4,0.6,-78.2C16.4,-79.1,32.7,-77.7,45.6,-70.2Z" transform="translate(100 100)" />
</svg>
